<?xml version="1.0" standalone="no"?>
<!DOCTYPE svg PUBLIC "-//W3C//DTD SVG 20010904//EN"
 "http://www.w3.org/TR/2001/REC-SVG-20010904/DTD/svg10.dtd">
<svg version="1.0" xmlns="http://www.w3.org/2000/svg"
 width="880.000000pt" height="880.000000pt" viewBox="0 0 880.000000 880.000000"
 preserveAspectRatio="xMidYMid meet">
<metadata>
Created by potrace 1.11, written by Peter Selinger 2001-2013
</metadata>
<g transform="translate(0.000000,880.000000) scale(0.100000,-0.100000)"
fill="#000000" stroke="none">
<path d="M7105 8290 c-218 -48 -280 -64 -400 -105 -170 -57 -294 -105 -380
-148 -38 -19 -80 -37 -92 -41 -13 -4 -23 -11 -23 -16 0 -5 -15 -13 -33 -19
-19 -7 -63 -30 -98 -53 -164 -105 -219 -142 -219 -148 0 -4 -21 -21 -47 -38
-67 -43 -241 -209 -311 -295 -81 -100 -136 -187 -126 -196 5 -4 59 -18 119
-30 124 -25 376 -96 479 -135 l68 -26 -6 25 c-14 55 64 192 219 385 257 319
669 688 930 832 60 33 42 35 -80 8z"/>
<path d="M1285 7953 c6 -5 40 -30 76 -56 146 -102 354 -359 470 -582 17 -33
36 -63 41 -66 5 -3 9 -8 7 -10 -2 -4 15 -46 61 -144 43 -89 72 -208 68 -271
l-3 -53 55 31 c142 81 357 181 522 242 l47 17 -57 85 c-187 275 -497 522 -839
668 -95 40 -265 98 -356 121 -34 9 -71 19 -82 22 -13 3 -16 2 -10 -4z"/>
<path d="M5705 6824 c-489 -51 -811 -246 -988 -599 -58 -114 -94 -238 -114
-390 -13 -103 -14 -137 -3 -238 7 -65 16 -119 19 -121 3 -2 6 78 6 177 0 164
3 192 27 287 130 511 510 802 1110 850 225 18 425 -13 598 -91 72 -33 81 -35
55 -14 -16 14 -33 25 -38 25 -4 0 -31 11 -59 25 -115 56 -252 84 -428 89 -80
2 -163 2 -185 0z"/>
<path d="M2640 6801 c-670 -72 -1057 -460 -1107 -1108 -6 -86 12 -274 29 -303
6 -9 7 4 3 35 -13 100 -6 287 15 396 26 138 51 213 107 328 155 315 432 515
820 591 137 28 378 37 493 21 95 -14 233 -52 293 -81 46 -22 50 -24 43 -11 -8
13 -105 57 -178 81 -142 47 -356 68 -518 51z"/>
<path d="M5563 6539 c-320 -37 -571 -211 -677 -468 -55 -136 -60 -163 -61
-331 0 -171 8 -218 61 -344 62 -146 142 -247 249 -314 138 -86 262 -117 460
-116 413 2 682 159 813 476 42 101 62 209 62 334 0 59 3 105 6 102 3 -3 5 -53
5 -109 -2 -262 -100 -485 -275 -629 -34 -28 -78 -58 -98 -67 -21 -9 -38 -20
-38 -24 0 -6 -47 -22 -239 -81 -81 -25 -403 -25 -454 0 -12 6 -49 18 -82 27
-33 9 -75 25 -94 36 -18 11 -36 18 -38 15 -7 -6 80 -55 140 -78 99 -39 152
-49 277 -55 467 -20 799 196 901 585 38 145 35 359 -7 447 l-14 30 5 -45 c3
-29 -4 -12 -20 49 -67 251 -233 441 -453 520 -132 48 -260 60 -429 40z"/>
<path d="M2990 6493 c-380 -21 -632 -144 -778 -380 -40 -67 -88 -171 -97 -215
-4 -18 -12 -39 -19 -47 -7 -9 -11 -66 -11 -160 1 -141 2 -150 38 -256 49 -146
95 -223 193 -322 66 -66 98 -89 169 -123 48 -23 119 -49 158 -57 99 -22 325
-21 441 1 410 79 657 380 658 801 0 127 -25 226 -91 360 -139 279 -362 414
-661 398z"/>
<path d="M6451 5994 c0 -11 3 -14 6 -6 3 7 2 16 -1 19 -3 4 -6 -2 -5 -13z"/>
<path d="M7650 5526 c0 -3 5 -17 11 -33 34 -86 82 -274 106 -412 28 -162 19
-633 -13 -744 -5 -16 -1 -18 27 -15 31 3 34 7 43 48 5 25 9 155 10 290 1 265
-6 323 -64 547 -34 132 -120 360 -120 319z"/>
<path d="M4631 5424 c0 -11 3 -14 6 -6 3 7 2 16 -1 19 -3 4 -6 -2 -5 -13z"/>
<path d="M3705 5395 c-26 -98 -181 -285 -299 -359 -87 -56 -224 -107 -356
-134 l-45 -10 40 -1 c22 0 77 8 122 19 200 48 345 141 450 288 48 66 107 195
100 215 -3 7 -8 -1 -12 -18z"/>
<path d="M1572 5340 c0 -14 2 -19 5 -12 2 6 2 18 0 25 -3 6 -5 1 -5 -13z"/>
<path d="M5135 5060 c3 -5 8 -10 11 -10 2 0 4 5 4 10 0 6 -5 10 -11 10 -5 0
-7 -4 -4 -10z"/>
<path d="M2948 4883 c6 -2 18 -2 25 0 6 3 1 5 -13 5 -14 0 -19 -2 -12 -5z"/>
<path d="M4297 4725 c-10 -14 -24 -25 -31 -25 -20 0 -27 -40 -13 -70 15 -31
61 -39 88 -14 24 22 26 95 3 118 -20 21 -26 20 -47 -9z"/>
<path d="M4285 4421 c-16 -10 -51 -41 -77 -70 -26 -28 -54 -51 -61 -51 -24 0
-40 -25 -24 -39 10 -8 47 -8 138 -1 68 6 175 14 238 19 62 5 118 14 123 19 14
14 2 42 -18 42 -9 0 -73 23 -142 50 -69 28 -130 50 -136 50 -6 0 -24 -8 -41
-19z m91 -51 c32 -11 62 -24 67 -29 22 -22 -142 -49 -189 -31 l-27 11 33 34
c19 19 39 35 45 35 7 0 38 -9 71 -20z"/>
<path d="M8373 4144 c0 -93 -6 -187 -17 -249 -71 -424 -280 -977 -540 -1430
-100 -172 -293 -457 -390 -574 -238 -285 -458 -490 -696 -648 -172 -115 -430
-244 -625 -313 -157 -55 -598 -170 -895 -234 -576 -123 -1195 -143 -1905 -60
-253 29 -673 95 -770 120 -466 121 -854 349 -1255 737 -58 56 -95 91 -84 77
94 -114 269 -285 398 -388 311 -251 652 -424 1006 -511 248 -61 897 -141 1313
-162 338 -17 779 6 1082 57 320 54 929 203 1160 284 110 39 353 151 466 215
325 184 636 463 910 815 316 406 598 945 767 1470 140 432 178 807 93 919 -17
23 -18 19 -18 -125z"/>
<path d="M7040 4214 c-168 -13 -404 -33 -525 -44 -121 -11 -350 -32 -510 -45
-159 -14 -375 -34 -480 -45 -104 -11 -296 -29 -425 -40 -129 -12 -260 -25
-290 -30 -30 -5 -113 -14 -185 -20 -201 -16 -452 -40 -535 -51 -59 -7 -409
-41 -755 -73 -22 -2 -71 -8 -110 -14 -38 -6 -170 -18 -292 -28 -122 -10 -220
-20 -218 -23 1 -3 -22 -6 -53 -7 -49 -1 -117 -8 -117 -13 0 -1 -31 -4 -70 -7
-162 -11 -638 -55 -740 -69 -60 -8 -216 -24 -345 -35 -129 -11 -259 -23 -288
-26 l-53 -6 6 -42 c25 -167 41 -244 80 -383 81 -295 153 -474 287 -713 32 -55
50 -85 149 -240 82 -130 191 -270 290 -375 32 -33 65 -69 76 -81 21 -24 158
-144 223 -195 175 -139 378 -249 591 -322 262 -90 937 -178 1376 -178 299 0
507 18 768 66 183 34 689 166 826 216 121 44 358 164 474 241 298 197 584 510
832 913 145 234 305 586 397 874 126 391 160 737 79 801 -32 25 -61 25 -463
-6z m-860 -265 c0 -13 -103 -170 -108 -164 -6 6 29 81 61 127 31 47 47 59 47
37z m595 -11 c-4 -13 -15 -32 -24 -43 -9 -11 -29 -39 -44 -62 -34 -53 -42 -55
-22 -6 35 84 109 175 90 111z m-2018 -60 c4 -7 17 -18 28 -24 14 -8 21 -23 23
-53 3 -41 2 -42 -20 -36 -22 7 -21 6 5 -19 15 -14 33 -26 38 -26 6 0 8 -4 5
-9 -9 -13 22 -22 42 -12 53 27 72 33 87 27 10 -4 19 2 25 17 l9 22 0 -22 c1
-12 -5 -26 -12 -30 -7 -4 -18 -20 -24 -35 -14 -30 -19 -32 -76 -19 -34 8 -37
7 -32 -9 9 -27 -21 -35 -163 -42 -52 -3 -76 -1 -83 9 -9 10 -6 15 11 21 19 7
20 10 6 21 -19 16 -37 6 -29 -15 4 -10 -2 -17 -15 -21 -11 -3 -19 -10 -16 -16
4 -12 13 -67 17 -102 1 -11 7 -23 12 -27 6 -4 -3 -8 -19 -8 -21 0 -27 4 -22
15 4 10 -1 15 -14 15 -11 0 -20 4 -20 9 0 5 -23 11 -50 13 -36 2 -50 -1 -50
-10 0 -7 4 -10 10 -7 21 13 -5 -31 -36 -62 -22 -21 -32 -39 -29 -52 3 -14 -10
-35 -41 -66 -25 -25 -49 -45 -54 -45 -4 0 -10 13 -13 28 -7 35 -40 40 -56 8
-9 -16 -9 -29 -2 -50 14 -34 14 -33 -4 -33 -19 0 -29 38 -21 75 5 18 4 23 -3
13 -9 -14 -25 12 -45 77 -12 36 -57 112 -67 112 -5 0 -9 -11 -9 -24 0 -14 -10
-37 -23 -53 -13 -15 -35 -49 -50 -74 -25 -44 -64 -79 -88 -79 -8 0 -9 12 -4
38 6 35 6 36 -9 17 -8 -11 -16 -28 -16 -37 0 -10 -4 -18 -9 -18 -5 0 -7 10 -5
23 2 12 2 16 -2 10 -3 -7 -10 -13 -15 -13 -6 0 -19 -9 -31 -20 -27 -25 -41
-17 -26 15 6 13 14 23 17 20 4 -2 13 0 20 4 9 6 5 13 -13 25 -22 14 -26 14
-26 2 0 -8 -9 -18 -20 -21 -41 -13 -67 38 -35 65 19 16 3 40 -26 40 -24 0 -25
-20 -1 -20 12 -1 5 -12 -25 -38 -24 -21 -43 -45 -43 -54 0 -9 -5 -20 -11 -24
-6 -3 -9 -17 -6 -30 4 -23 2 -25 -35 -28 -7 -1 -13 6 -13 14 0 8 -6 15 -12 14
-7 -1 -26 -2 -42 -2 -23 -2 -28 -6 -24 -20 2 -10 -5 -26 -16 -36 -12 -11 -21
-14 -21 -8 0 6 6 12 13 15 18 6 -10 37 -34 37 -20 0 -26 -15 -9 -23 6 -3 5 -4
-2 -3 -7 2 -12 14 -10 26 1 13 -1 21 -5 17 -4 -4 -13 16 -20 45 -8 29 -29 86
-48 126 -34 70 -55 91 -55 54 0 -18 -71 -135 -112 -184 -26 -31 -47 -82 -47
-115 -1 -20 -6 -23 -41 -23 -22 0 -40 4 -40 9 0 7 -111 28 -130 24 -3 -1 -35
-4 -72 -8 -54 -6 -68 -4 -68 6 0 11 -2 11 -9 0 -5 -8 -20 -15 -33 -17 -12 -1
-26 -3 -30 -3 -5 -1 -8 -9 -8 -18 -1 -10 -7 -3 -15 16 -19 43 -19 44 9 26 21
-14 24 -14 36 0 11 13 10 19 -6 33 -24 22 -64 23 -64 2 -1 -9 -6 -6 -15 10
-19 33 -19 46 0 30 9 -8 15 -8 15 -2 0 6 -6 12 -12 15 -21 7 -38 -4 -38 -25 0
-11 -23 -55 -52 -99 -42 -64 -54 -77 -65 -67 -12 10 -12 13 1 20 9 5 16 16 16
24 0 9 8 28 18 42 34 49 35 57 3 25 -18 -18 -39 -33 -48 -33 -12 0 -13 -3 -4
-14 8 -9 8 -16 2 -20 -11 -7 -161 1 -205 10 -21 5 -32 2 -42 -10 -8 -12 -19
-15 -38 -10 -39 10 -46 29 -8 21 31 -6 43 5 21 19 -8 4 -7 9 2 15 9 6 3 7 -16
3 -27 -4 -34 1 -68 43 -31 38 -35 49 -23 51 9 2 16 9 16 15 0 7 4 6 10 -3 11
-17 13 -10 4 14 -3 9 -10 16 -15 16 -4 0 -19 11 -33 25 -14 14 -31 25 -38 25
-8 0 -14 14 -15 34 -3 33 -2 33 47 39 27 3 60 13 73 22 13 8 32 13 41 9 15 -6
17 0 14 40 -2 25 -6 46 -10 46 -13 0 -9 28 5 39 6 6 27 24 46 40 35 31 53 31
67 2 7 -15 15 -16 41 -9 18 5 32 12 31 16 -1 4 12 21 30 39 l32 32 46 -20 c29
-13 50 -17 57 -11 7 5 35 8 64 8 28 -1 49 2 47 6 -3 4 2 10 9 15 7 4 16 16 20
26 10 25 33 31 77 18 28 -8 40 -18 45 -38 3 -15 9 -23 13 -17 13 18 77 61 99
66 13 4 26 2 29 -3 3 -5 11 -9 17 -8 9 0 9 2 0 6 -7 2 -13 9 -13 14 0 15 19
10 40 -11 17 -17 30 -20 83 -16 76 5 77 5 52 17 -18 8 -17 9 5 5 14 -3 31 1
41 10 11 10 25 13 40 9 17 -6 19 -9 8 -16 -11 -7 -10 -9 4 -9 9 0 17 5 17 11
0 6 7 9 15 6 8 -4 17 -2 21 4 4 6 11 6 20 -2 17 -14 19 2 3 18 -9 9 -6 10 12
6 13 -3 29 -10 36 -15 8 -6 25 -6 48 2 23 8 40 8 48 2 15 -11 94 -22 113 -15
7 2 10 12 7 20 -5 13 -3 13 15 4 12 -7 22 -16 22 -22 0 -6 23 -9 54 -8 50 2
57 -1 103 -39 27 -23 59 -42 71 -42 19 0 20 3 12 26 -9 21 -6 29 12 44 16 13
24 15 27 7 11 -33 50 -35 44 -3 -6 29 30 55 50 37 7 -5 22 -8 32 -7 11 2 27
-2 35 -9 30 -27 64 -28 91 -3 14 13 31 22 38 20 6 -2 23 3 36 12 15 10 34 14
49 10 13 -3 33 -1 43 5 15 7 23 6 36 -7 36 -39 66 -54 68 -34 2 17 8 45 14 60
5 14 7 14 15 2 6 -9 5 -17 -2 -21 -6 -4 -1 -15 13 -27 12 -12 25 -19 29 -17 4
3 10 -4 13 -15 3 -12 -1 -21 -12 -24 -10 -3 -9 -4 4 -3 15 2 20 10 20 34 0 17
4 29 9 26 5 -3 17 5 27 18 17 23 19 23 32 5 14 -19 113 -34 101 -14 -9 14 51
55 83 57 7 1 16 -5 20 -11z m219 -77 c-3 -4 -28 -11 -55 -15 -28 -4 -53 -11
-56 -16 -10 -16 -25 -12 -25 6 0 9 6 14 13 11 7 -3 26 1 42 8 34 15 89 19 81
6z m-1931 -29 c-3 -3 -11 0 -18 7 -9 10 -8 11 6 5 10 -3 15 -9 12 -12z m2435
-54 c0 -16 -100 -161 -106 -155 -7 7 16 55 53 115 31 50 53 66 53 40z m-3325
-148 c3 -5 -3 -10 -15 -10 -12 0 -18 5 -15 10 3 6 10 10 15 10 5 0 12 -4 15
-10z m-188 -72 c-3 -8 -6 -5 -6 6 -1 11 2 17 5 13 3 -3 4 -12 1 -19z m-269
-98 c-29 -44 -55 -75 -57 -69 -5 15 53 129 81 159 20 21 23 22 26 7 2 -10 -20
-53 -50 -97z m3201 1 c-29 -44 -55 -79 -56 -77 -9 9 40 116 69 151 55 66 46
15 -13 -74z m1016 82 c-9 -24 -98 -154 -102 -149 -6 6 29 80 59 123 29 43 56
59 43 26z m725 -145 c0 -7 -21 -44 -47 -82 -57 -86 -52 -81 -59 -74 -7 7 7 34
55 110 35 56 51 70 51 46z m-2870 -28 c0 -5 -5 -10 -11 -10 -5 0 -7 5 -4 10 3
6 8 10 11 10 2 0 4 -4 4 -10z m460 -4 c0 -8 -4 -17 -9 -20 -10 -7 -23 19 -14
28 11 11 23 6 23 -8z m-540 -16 c0 -5 -5 -10 -11 -10 -5 0 -7 5 -4 10 3 6 8
10 11 10 2 0 4 -4 4 -10z m170 -39 c0 -5 -16 -11 -35 -13 -40 -5 -40 -5 -18
21 12 15 21 18 35 10 10 -5 18 -14 18 -18z m390 10 c0 -5 -7 -11 -14 -14 -10
-4 -13 -1 -9 9 6 15 23 19 23 5z m-712 -32 c-2 -6 -7 -10 -11 -10 -4 1 -14 1
-23 1 -8 0 -12 5 -9 10 8 13 48 13 43 -1z m-145 -54 c-3 -9 -8 -14 -10 -11 -3
3 -2 9 2 15 9 16 15 13 8 -4z m-453 -30 c0 -33 -2 -35 -35 -35 -19 0 -35 3
-35 6 0 8 54 63 63 64 4 0 7 -16 7 -35z m-850 0 c0 -8 -9 -15 -20 -15 -11 0
-20 7 -20 15 0 8 9 15 20 15 11 0 20 -7 20 -15z m2116 -14 c0 -12 -5 -17 -15
-13 -10 4 -12 1 -6 -8 5 -9 4 -11 -3 -6 -9 5 -9 13 -2 27 14 24 26 25 26 0z
m-2036 -11 c0 -5 -4 -10 -10 -10 -5 0 -10 5 -10 10 0 6 5 10 10 10 6 0 10 -4
10 -10z m-57 -14 c-5 -15 -93 -13 -93 2 0 9 14 12 48 10 26 -2 46 -7 45 -12z
m584 -18 c-3 -7 -5 -2 -5 12 0 14 2 19 5 13 2 -7 2 -19 0 -25z m483 -1 c0 -5
-4 -5 -10 -2 -5 3 -10 14 -10 23 0 15 2 15 10 2 5 -8 10 -19 10 -23z m-148
-32 c1 -17 7 -33 13 -37 6 -5 5 -8 -3 -8 -13 0 -27 28 -38 78 -6 25 -5 26 10
12 9 -9 17 -29 18 -45z m118 35 c0 -5 -2 -10 -4 -10 -3 0 -8 5 -11 10 -3 6 -1
10 4 10 6 0 11 -4 11 -10z m50 -24 c0 -3 -4 -8 -10 -11 -5 -3 -10 -1 -10 4 0
6 5 11 10 11 6 0 10 -2 10 -4z m800 -16 c0 -3 18 -4 40 -2 22 2 40 0 40 -5 0
-5 -14 -8 -30 -5 -17 2 -36 0 -43 -6 -8 -6 -17 -4 -29 7 -16 16 -16 17 3 17
10 0 19 -3 19 -6z m-733 -6 c-3 -3 -12 -4 -19 -1 -8 3 -5 6 6 6 11 1 17 -2 13
-5z m703 -33 c0 -12 -28 -22 -34 -12 -3 5 -3 11 1 15 9 9 33 7 33 -3z m98 -58
c-10 -2 -26 -2 -35 0 -10 3 -2 5 17 5 19 0 27 -2 18 -5z m107 -3 c-27 -12 -35
-12 -35 0 0 6 12 10 28 9 24 0 25 -1 7 -9z m-165 -15 c0 -8 -4 -15 -10 -15 -5
0 -10 7 -10 15 0 8 5 15 10 15 6 0 10 -7 10 -15z m133 -2 c9 -9 -43 -43 -65
-43 -10 0 -18 5 -18 10 0 6 6 10 14 10 8 0 16 7 20 15 5 15 37 21 49 8z
m-2073 -51 c0 -22 -103 -178 -108 -164 -5 15 25 81 61 134 34 51 47 59 47 30z
m1984 9 c7 -10 -3 -41 -13 -41 -17 1 -33 20 -28 34 7 17 32 22 41 7z m1296
-18 c0 -9 -6 -24 -14 -32 -8 -9 -30 -40 -49 -69 -19 -29 -38 -49 -41 -44 -5 8
19 53 74 140 17 26 30 29 30 5z m-1130 -47 c0 -3 -4 -8 -10 -11 -5 -3 -10 -1
-10 4 0 6 5 11 10 11 6 0 10 -2 10 -4z m-310 -26 c0 -24 -102 -178 -108 -162
-6 19 83 181 101 182 4 0 7 -9 7 -20z m140 -20 c0 -5 -5 -10 -11 -10 -5 0 -7
5 -4 10 3 6 8 10 11 10 2 0 4 -4 4 -10z m-40 -74 c0 -3 -4 -8 -10 -11 -5 -3
-10 -1 -10 4 0 6 5 11 10 11 6 0 10 -2 10 -4z m-617 -65 c-3 -9 -26 -46 -51
-83 -45 -67 -70 -88 -57 -48 4 12 2 20 -6 20 -8 0 -9 -10 -5 -30 3 -19 2 -29
-4 -25 -6 3 -10 13 -10 21 0 10 -9 13 -32 10 -18 -3 -36 -5 -40 -5 -5 -1 -8
-9 -8 -18 0 -10 -5 -25 -11 -33 -8 -12 -9 -10 -4 8 8 27 -1 28 -40 2 -16 -11
-26 -20 -20 -20 5 0 4 -5 -3 -12 -16 -16 -15 -28 2 -28 22 0 28 -17 12 -33
-10 -10 -11 -18 -4 -25 5 -5 8 -18 5 -28 -4 -17 -6 -17 -12 3 -10 30 -34 37
-57 16 -19 -17 -21 -17 -42 10 -23 29 -49 37 -40 12 5 -11 -1 -15 -25 -15 -28
0 -36 8 -32 33 2 10 -40 -1 -53 -14 -6 -6 -4 -9 7 -9 9 0 21 -9 27 -20 6 -12
16 -17 26 -13 9 3 20 0 25 -8 8 -12 12 -11 24 5 15 19 15 19 15 -5 0 -21 -4
-24 -39 -24 -22 0 -43 3 -47 8 -12 11 -26 8 -18 -5 5 -8 0 -9 -17 -5 -22 6
-23 5 -5 -8 19 -14 13 -40 -7 -28 -7 4 -7 0 1 -10 8 -9 10 -22 6 -29 -5 -8
-12 6 -20 37 -7 27 -11 52 -8 57 3 4 0 8 -7 8 -8 0 -8 4 1 15 7 8 9 15 5 15
-4 0 -2 7 5 15 10 13 9 19 -6 36 l-18 20 -13 -23 c-8 -15 -12 -17 -13 -8 0 8
-11 29 -25 45 l-24 30 -1 -25 c0 -27 -95 -170 -112 -170 -6 0 -7 7 -3 18 4 9
10 28 13 41 4 19 2 23 -11 18 -10 -4 -18 1 -22 12 -5 16 -14 18 -53 15 -26 -3
-42 -1 -35 3 15 11 13 53 -3 53 -6 0 -14 -13 -17 -30 -5 -21 -12 -30 -27 -30
-11 0 -20 5 -20 10 0 6 9 10 20 10 11 0 20 5 20 10 0 6 -4 10 -10 10 -24 0 -7
19 27 31 28 9 38 9 41 0 2 -7 17 -9 42 -5 25 4 49 1 69 -9 17 -9 29 -12 26 -7
-2 4 5 10 17 13 21 6 21 7 5 25 -9 10 -17 25 -17 33 0 8 -5 20 -12 27 -9 9 -6
12 16 12 19 0 27 -4 23 -13 -4 -10 4 -13 28 -12 18 1 36 5 41 8 5 3 25 2 44
-2 28 -6 35 -12 33 -29 -2 -12 2 -22 7 -22 6 0 10 5 10 10 0 6 8 11 18 11 16
1 16 2 0 6 -35 9 -18 23 20 17 34 -5 44 -2 75 26 20 17 41 29 47 25 6 -4 19
-4 28 0 16 6 16 8 -2 20 -18 14 -18 15 7 26 21 10 29 9 42 -5 23 -23 31 -20
45 14 7 16 16 27 20 25 5 -3 11 -1 15 5 3 5 11 10 17 10 6 0 3 -12 -7 -26 -13
-20 -14 -28 -4 -40 18 -22 28 -17 23 11 -2 14 0 25 6 25 5 0 10 -11 10 -24 0
-14 5 -28 10 -31 6 -3 10 4 10 17 0 28 57 59 70 38 5 -8 16 1 36 28 27 38 49
40 37 3z m1082 -1 c-10 -30 -105 -166 -105 -149 1 22 38 100 66 136 28 37 49
44 39 13z m1528 -80 c-50 -76 -69 -81 -32 -8 33 66 73 116 77 97 2 -9 -18 -49
-45 -89z m-3023 80 c0 -5 -4 -10 -10 -10 -5 0 -10 5 -10 10 0 6 5 10 10 10 6
0 10 -4 10 -10z m25 -20 c-4 -6 -11 -8 -16 -5 -5 4 -9 1 -9 -4 0 -6 -9 -11
-20 -11 -27 0 -25 18 3 23 40 8 48 7 42 -3z m-370 -85 c0 -16 -7 -20 -35 -21
-19 -1 -40 -3 -46 -5 -24 -8 -8 17 21 32 38 21 60 19 60 -6z m611 -111 c-12
-8 -14 -14 -6 -19 7 -4 9 -19 5 -38 -5 -25 -4 -29 5 -17 9 12 10 10 6 -12 -3
-14 -9 -34 -13 -44 -5 -13 -3 -15 8 -9 8 4 11 4 6 0 -14 -16 -57 -11 -62 6 -3
9 -21 24 -40 34 -41 19 -45 35 -10 35 14 0 25 -4 25 -10 0 -15 36 -12 50 5 11
13 8 15 -14 15 -22 0 -26 4 -26 30 0 20 4 28 13 24 7 -2 21 2 32 10 11 8 24
12 29 9 5 -4 1 -12 -8 -19z m-416 -54 c0 -5 -4 -10 -10 -10 -5 0 -10 -7 -10
-17 0 -9 -3 -14 -6 -10 -8 8 5 47 17 47 5 0 9 -4 9 -10z m-255 -21 c11 -17 -1
-21 -15 -4 -8 9 -8 15 -2 15 6 0 14 -5 17 -11z m2375 -161 c0 -14 -102 -170
-107 -164 -7 7 27 80 60 128 32 47 47 59 47 36z m670 4 c0 -4 -25 -46 -56 -92
-54 -84 -63 -79 -19 10 30 58 75 108 75 82z m-1687 -262 c-55 -82 -70 -77 -23
8 42 75 64 100 68 79 2 -9 -18 -48 -45 -87z"/>
<path d="M4708 3853 c-10 -2 -18 -9 -18 -15 0 -6 10 -8 23 -4 12 3 25 6 30 6
4 0 7 5 7 10 0 10 -12 11 -42 3z"/>
<path d="M4770 3819 c0 -5 5 -7 10 -4 6 3 10 8 10 11 0 2 -4 4 -10 4 -5 0 -10
-5 -10 -11z"/>
<path d="M4572 3799 c2 -6 8 -10 13 -10 5 0 11 4 13 10 2 6 -4 11 -13 11 -9 0
-15 -5 -13 -11z"/>
<path d="M4170 3751 c0 -6 5 -13 10 -16 6 -3 10 1 10 9 0 9 -4 16 -10 16 -5 0
-10 -4 -10 -9z"/>
<path d="M3871 3734 c0 -11 3 -14 6 -6 3 7 2 16 -1 19 -3 4 -6 -2 -5 -13z"/>
<path d="M4614 3724 c3 -8 6 -18 6 -20 0 -2 5 -4 10 -4 16 0 11 27 -6 34 -12
5 -15 2 -10 -10z"/>
<path d="M4520 3710 c0 -5 5 -10 10 -10 6 0 10 5 10 10 0 6 -4 10 -10 10 -5 0
-10 -4 -10 -10z"/>
<path d="M4820 3660 c-8 -5 -12 -11 -9 -14 2 -3 11 -1 19 4 8 5 12 11 9 14 -2
3 -11 1 -19 -4z"/>
<path d="M3850 3590 c0 -11 4 -20 9 -20 17 0 19 15 5 28 -12 11 -14 9 -14 -8z"/>
<path d="M3820 3526 c0 -2 7 -6 15 -10 8 -3 15 -1 15 4 0 6 -7 10 -15 10 -8 0
-15 -2 -15 -4z"/>
<path d="M3810 3469 c0 -5 5 -7 10 -4 6 3 10 8 10 11 0 2 -4 4 -10 4 -5 0 -10
-5 -10 -11z"/>
<path d="M3850 3440 c0 -13 18 -22 24 -11 3 5 -1 11 -9 15 -8 3 -15 1 -15 -4z"/>
<path d="M3796 3423 c-12 -12 -5 -22 14 -20 11 1 20 4 20 8 0 10 -27 19 -34
12z"/>
<path d="M4271 3374 c0 -11 3 -14 6 -6 3 7 2 16 -1 19 -3 4 -6 -2 -5 -13z"/>
<path d="M2405 3320 c4 -6 11 -8 16 -5 14 9 11 15 -7 15 -8 0 -12 -5 -9 -10z"/>
<path d="M2180 3268 c0 -10 -10 -13 -35 -10 -38 5 -49 -12 -12 -21 12 -3 32
-8 44 -12 19 -6 22 -4 18 15 -4 19 -1 21 21 16 19 -5 25 -3 22 6 -6 18 -58 23
-58 6z"/>
<path d="M2248 3193 c6 -2 18 -2 25 0 6 3 1 5 -13 5 -14 0 -19 -2 -12 -5z"/>
<path d="M2970 2479 c0 -11 27 -12 34 -1 2 4 -4 9 -15 9 -10 1 -19 -2 -19 -8z"/>
<path d="M2700 2469 c0 -5 5 -7 10 -4 6 3 10 8 10 11 0 2 -4 4 -10 4 -5 0 -10
-5 -10 -11z"/>
<path d="M3027 2433 c-5 -26 27 -43 46 -24 8 8 8 11 -1 11 -7 0 -12 4 -12 10
0 5 7 7 15 4 8 -4 15 -2 15 4 0 5 -13 12 -29 14 -24 4 -30 0 -34 -19z"/>
<path d="M2995 2430 c-3 -5 -1 -10 4 -10 6 0 11 5 11 10 0 6 -2 10 -4 10 -3 0
-8 -4 -11 -10z"/>
<path d="M2868 2413 c-16 -2 -28 -8 -28 -12 0 -17 14 -19 41 -6 32 17 53 19
44 5 -3 -5 -1 -10 5 -10 7 0 10 6 8 13 -5 13 -28 17 -70 10z"/>
<path d="M3040 2380 c0 -5 7 -10 16 -10 8 0 12 5 9 10 -3 6 -10 10 -16 10 -5
0 -9 -4 -9 -10z"/>
<path d="M3090 2380 c0 -5 5 -10 11 -10 5 0 7 5 4 10 -3 6 -8 10 -11 10 -2 0
-4 -4 -4 -10z"/>
<path d="M2630 2360 c0 -5 4 -10 9 -10 6 0 13 5 16 10 3 6 -1 10 -9 10 -9 0
-16 -4 -16 -10z"/>
</g>
</svg>
